HIERARCHY
ROOT Hips
{
  OFFSET -125.086 92.215 135.881
  CHANNELS 6 Xposition Yposition Zposition Zrotation Xrotation Yrotation
  JOINT LeftUpLeg
  {
    OFFSET 8.64259 1.95398 -2.38835
    CHANNELS 3 Zrotation Xrotation Yrotation
    JOINT LeftLeg
    {
      OFFSET 43.7702 0 0
      CHANNELS 3 Zrotation Xrotation Yrotation
      JOINT LeftFoot
      {
        OFFSET 40.6238 0 0
        CHANNELS 3 Zrotation Xrotation Yrotation
        JOINT LeftToeBase
        {
          OFFSET 12.7242 0 0
          CHANNELS 3 Zrotation Xrotation Yrotation
          End Site
          {
            OFFSET 0 0 0
          }
        }
      }
    }
  }
  JOINT RightUpLeg
  {
    OFFSET -8.2249 1.95398 -2.59336
    CHANNELS 3 Zrotation Xrotation Yrotation
    JOINT RightLeg
    {
      OFFSET 43.5653 0 0
      CHANNELS 3 Zrotation Xrotation Yrotation
      JOINT RightFoot
      {
        OFFSET 40.6238 0 0
        CHANNELS 3 Zrotation Xrotation Yrotation
        JOINT RightToeBase
        {
          OFFSET 12.7242 0 0
          CHANNELS 3 Zrotation Xrotation Yrotation
          End Site
          {
            OFFSET 0 0 0
          }
        }
      }
    }
  }
  JOINT Spine
  {
    OFFSET 0.165834 0.87714 6.61349
    CHANNELS 3 Zrotation Xrotation Yrotation
    JOINT Spine1
    {
      OFFSET 7.38963 1.71661e-005 0
      CHANNELS 3 Zrotation Xrotation Yrotation
      JOINT Spine2
      {
        OFFSET 11.9445 1.14441e-005 0
        CHANNELS 3 Zrotation Xrotation Yrotation
        JOINT Spine3
        {
          OFFSET 14.7254 4.19617e-005 0
          CHANNELS 3 Zrotation Xrotation Yrotation
          JOINT Spine4
          {
            OFFSET 10.9679 0 0
            CHANNELS 3 Zrotation Xrotation Yrotation
            JOINT RightShoulder
            {
              OFFSET 2.46616 -1.6653 3.69651
              CHANNELS 3 Zrotation Xrotation Yrotation
              JOINT RightArm
              {
                OFFSET 13.0012 0 0
                CHANNELS 3 Zrotation Xrotation Yrotation
                JOINT RightForeArm
                {
                  OFFSET 28.7848 1.52588e-005 0
                  CHANNELS 3 Zrotation Xrotation Yrotation
                  JOINT RightHand
                  {
                    OFFSET 26.5688 1.52588e-005 0
                    CHANNELS 3 Zrotation Xrotation Yrotation
                    End Site
                    {
                      OFFSET 0 0 0
                    }
                  }
                }
              }
            }
            JOINT LeftShoulder
            {
              OFFSET 2.38034 -1.29275 -3.7523
              CHANNELS 3 Zrotation Xrotation Yrotation
              JOINT LeftArm
              {
                OFFSET 16.3182 6.10352e-005 0
                CHANNELS 3 Zrotation Xrotation Yrotation
                JOINT LeftForeArm
                {
                  OFFSET 27.0901 0 0
                  CHANNELS 3 Zrotation Xrotation Yrotation
                  JOINT LeftHand
                  {
                    OFFSET 24.5451 1.52588e-005 0
                    CHANNELS 3 Zrotation Xrotation Yrotation
                    End Site
                    {
                      OFFSET 0 0 0
                    }
                  }
                }
              }
            }
            JOINT Neck
            {
              OFFSET 5.0226 -0.0266342 0
              CHANNELS 3 Zrotation Xrotation Yrotation
              JOINT Head
              {
                OFFSET 6.69363 2.86102e-005 0
                CHANNELS 3 Zrotation Xrotation Yrotation
                End Site
                {
                  OFFSET 0 0 0
                }
              }
            }
          }
        }
      }
    }
  }
}
MOTION
Frames:	18
Frame Time:	0.0416667
-176.03 83.3529 163.794 100.192 56.5709 87.1304 179.646 19.322 88.012 -103.518 0.0532116 4.04918 59.2261 7.31125 2.72293 55.6603 -1.32809 7.9974 172.689 31.3524 95.2374 -58.441 -18.1528 2.91985 74.3697 -10.2459 -0.125273 30.7358 -0.798584 6.14092 0.0728203 8.66579 -91.809 9.5182 -0.669873 -3.53539 -2.15729 -0.824721 -3.50255 -24.654 0.422896 -3.5733 -4.64139 0.422913 -3.57331 104.009 -43.6788 -79.0415 21.2043 -19.1556 -11.7695 -13.3365 -12.3063 -57.3999 -4.42889 -0.00672169 -5.7156 -76.2529 -45.3011 99.4232 -26.2717 25.1814 -10.3613 9.8851 2.50975 -83.0298 -8.8136 0.52099 -15.2054 29.2795 0.614943 7.48641 -24.2462 -2.41351 -0.00208017 
-164.195 89.5351 151.862 101.131 59.5273 81.0041 -177.544 44.3567 78.6768 -111.97 1.51901 3.42531 60.6779 7.97844 1.89663 57.1158 -1.15819 9.44495 173.716 14.3016 89.1628 -47.3816 -14.0132 1.91289 75.7759 -7.91138 7.34236 33.632 -0.829279 2.60806 0.483196 8.50043 -91.2183 9.88835 0.409997 -2.44279 -1.78476 0.302125 -2.45847 -24.306 1.12514 -2.20684 -4.29335 1.12514 -2.20684 103.796 -42.3274 -79.3511 17.6709 -31.9517 -16.7319 -11.4777 -3.65767 -68.8861 -3.67048 0.111285 -10.1787 -75.6515 -45.3639 100.387 -22.4266 15.2648 -4.03387 12.1096 0.437025 -85.7674 -5.62903 0.242448 -15.4837 24.6447 -2.72205 11.4743 -23.2555 -5.9811 -4.43518 
-152.83 99.0373 139.885 105.201 56.4355 72.6991 -170.797 51.9335 69.2381 -107.89 -0.89161 3.13339 61.2694 6.77013 -1.86521 58.1575 -1.20521 9.12054 174.793 2.89009 87.9301 -38.3513 -15.6908 -1.73837 45.6379 5.88809 16.5535 29.3577 0.41604 1.79567 0.899149 8.72729 -90.4634 9.41776 1.58469 -1.03998 -2.25272 1.5374 -1.10872 -24.794 1.82392 -0.515527 -4.78136 1.82391 -0.515535 104.532 -43.3631 -78.1388 15.8571 -42.3643 -16.324 -12.0993 1.05784 -75.288 -2.85569 0.0868468 -10.9251 -76.1308 -42.1032 99.7293 -21.8778 6.30296 5.57251 17.4066 -0.369354 -87.6148 -2.02788 -0.123389 -13.7701 18.0914 -4.81013 13.202 -21.7668 -7.03372 -10.0018 
-141.92 104.673 127.98 106.105 53.3799 72.6923 -176.09 48.0903 72.8484 -101.151 -3.93077 2.92612 62.9092 7.35526 -3.78062 56.0296 -1.22444 8.88009 175.375 5.2001 87.7809 -36.141 -12.9166 -1.61095 48.5617 4.73684 15.4719 14.0729 3.92845 -7.07486 1.0279 8.85851 -90.5678 9.16596 1.79597 -1.25294 -2.50444 1.73909 -1.33079 -25.0479 2.08947 -0.655102 -5.03522 2.08948 -0.655116 104.469 -43.5818 -78.2579 11.7331 -51.4137 -17.4151 -12.503 5.04887 -79.483 2.19309 -0.204639 -12.1288 -76.2442 -39.2439 99.6302 -19.6205 -0.731363 15.2026 18.5273 -0.763912 -88.7679 -1.45907 -0.170387 -14.3334 15.7673 -4.10312 14.5266 -21.7593 -6.27165 -11.2255 
-131.069 104.937 116.108 102.405 49.9936 76.2477 179.56 40.9091 77.5686 -81.8957 0.777583 2.54496 59.9692 5.0662 -2.99047 56.0664 -1.93104 3.18157 175.547 8.53871 87.6404 -22.2442 -8.07336 -0.456303 46.571 6.23107 19.9193 35.9019 -0.798766 -8.89455 1.25145 8.6916 -90.7005 9.50446 2.17967 -1.55383 -2.1657 2.1092 -1.64828 -24.7128 2.54583 -0.826663 -4.70018 2.54584 -0.826677 104.078 -44.0382 -78.9399 11.6441 -54.9921 -16.2465 -9.15846 6.5751 -80.5611 0.649205 -0.0976844 -11.4196 -75.9591 -38.06 100.175 -15.3698 -5.7312 18.8899 15.1539 -0.559756 -86.9936 -0.00682687 -0.313861 -15.1551 15.1678 -2.8703 15.9733 -22.2829 -5.37008 -11.0716 
-119.69 98.0248 104.282 106.242 51.2456 73.4716 174.782 34.4271 78.9207 -58.4965 5.33538 3.18762 58.1518 3.2351 -3.62977 56.9149 -2.32074 0.597179 174.138 5.72526 89.3227 -23.2233 -7.27523 1.32628 46.517 5.56972 15.8888 47.2261 -3.77609 -11.2959 1.12773 8.77398 -90.8687 9.33839 1.85882 -1.85939 -2.33267 1.77519 -1.93939 -24.8731 2.33164 -1.21473 -4.86045 2.33165 -1.21473 104.559 -45.0147 -78.1819 14.7884 -50.5711 -12.488 -11.7104 4.75537 -78.9535 2.03016 -0.194913 -12.1381 -75.4133 -38.9204 101.089 -12.0915 -7.65368 17.107 10.5803 -1.95889 -88.8162 6.06701 -0.741915 -13.0274 13.1532 -3.64541 16.3598 -21.0437 -5.9589 -11.7556 
-108.438 90.2844 92.807 109.18 53.9105 73.3595 172.637 28.6179 81.8826 -24.5163 9.36334 2.47744 47.5132 -1.07803 -6.80042 55.07 -2.39434 -1.30464 173.144 -3.23251 90.4998 -39.6147 -8.99339 3.62349 78.716 -14.5681 -6.91336 38.9444 -1.50439 -3.17511 0.914915 8.91839 -91.1999 9.04281 1.289 -2.45484 -2.62993 1.17976 -2.50915 -25.1573 1.96704 -1.95421 -5.14461 1.96705 -1.95421 104.484 -45.9803 -78.3543 13.9028 -44.5168 -15.0303 -10.1556 2.39264 -76.3615 -0.535362 -0.0298587 -11.1923 -73.3932 -42.1934 104.291 -14.816 -8.83591 11.7682 8.66303 -1.95138 -90.4603 8.00049 -0.98754 -14.24 14.3846 -3.79751 15.5473 -18.6749 -6.59417 -9.65279 
-95.1717 88.2196 80.2624 99.4799 51.7009 80.8124 175.337 31.1267 83.9324 -6.2598 6.08543 1.06937 35.6728 -8.20363 -10.8414 52.8404 -2.27965 -2.64279 175.311 -10.4145 95.5592 -35.9017 -6.41509 1.09695 81.1109 -11.6757 3.33895 48.0348 -3.55887 -6.37636 1.0617 8.30952 -90.687 10.2707 1.8012 -1.53152 -1.40001 1.73204 -1.60931 -23.9424 2.17823 -0.919274 -3.92973 2.17822 -0.919275 104.97 -46.2704 -77.5759 13.6609 -44.0412 -18.6667 -9.81409 -0.592959 -71.9029 0.0959981 -0.0635198 -10.7728 -73.0118 -45.2313 104.641 -21.923 -4.03897 9.99969 9.28759 -1.22996 -85.8439 3.81049 -0.634387 -14.4105 15.6144 -3.24675 12.3561 -19.5689 -5.46709 -8.06855 
-81.2585 86.7497 66.6633 92.1672 45.7247 83.3995 179.849 37.6404 82.3516 -31.0273 8.99364 -0.552266 51.5988 -1.75378 -7.95153 37.3711 -0.767102 0.82302 173.122 -12.1401 86.9125 -40.6943 -10.2717 -2.00426 57.0846 1.47409 21.3947 58.1665 -3.42163 7.09127 1.26855 7.7805 -89.6207 11.3093 2.70124 0.486232 -0.358853 2.72001 0.366777 -22.9124 2.43015 1.27602 -2.89971 2.43015 1.27602 104.835 -46.0717 -77.7855 20.5597 -45.9511 -13.5607 -10.5221 -2.61317 -68.7709 0.629695 -0.0778193 -9.70078 -72.905 -47.3461 104.614 -24.1582 -1.0046 6.66487 12.0066 1.7559 -80.1892 -1.307 -0.197313 -15.8179 21.3837 -1.76671 11.3524 -22.715 -4.05303 -8.29099 
-68.2711 83.959 55.793 100.201 49.138 73.9046 -179.554 34.7406 75.2615 -56.8188 11.9375 0.32314 68.4738 9.35494 5.34254 33.0804 -0.395343 0.45648 171.766 0.172392 90.3151 -86.5212 -24.6479 -3.15059 52.0394 1.73459 5.32213 26.4121 0.928731 -6.45044 0.438926 8.66387 -88.963 9.52789 1.34261 1.94834 -2.14373 1.42705 1.88739 -24.6692 0.695183 2.26165 -4.6565 0.695166 2.26164 104.54 -44.4464 -78.1864 24.3913 -38.6772 -10.326 -10.4822 -5.84542 -64.603 -2.38818 0.0246866 -8.27264 -75.4065 -48.9875 100.619 -25.5104 4.59362 -10.5306 13.0203 5.58735 -73.6271 0.0169142 -0.299852 -14.2581 29.6618 -1.08725 12.3046 -24.3209 -4.21041 -9.82115 
-56.0742 86.0131 45.9293 101.967 50.1326 75.9286 179.12 21.1854 78.4938 -58.4605 16.3225 3.50706 75.9408 15.5187 10.6709 42.0334 -1.12062 3.64726 172.881 34.4419 83.2307 -122.535 -19.0787 -3.88033 54.4502 0.143023 4.78804 22.2601 1.99087 -5.64963 -0.280114 8.77817 -89.0639 9.31753 -0.138064 1.86922 -2.35488 -0.055693 1.87347 -24.8799 -0.693386 1.74138 -4.86723 -0.693379 1.74138 106.02 -45.4321 -75.7889 22.7556 -24.8227 -5.21082 -16.5054 -8.64603 -65.5284 -5.74612 0.0490339 -7.01651 -77.318 -45.4297 97.6965 -22.6766 13.0981 -28.5834 9.88829 6.92351 -72.2933 -1.69744 -0.144706 -14.767 29.9847 -1.65131 4.18241 -25.8202 -2.44724 -4.2711 
-43.4252 96.3736 35.678 100.863 53.8318 85.3345 179.576 6.1176 91.5937 -42.1079 14.6581 9.15444 59.946 2.31811 -5.88609 48.3219 -1.55115 1.79584 156.221 55.4085 102.176 -125.009 -7.10835 -4.3227 58.7321 -3.80893 3.6249 37.3036 -1.15043 -11.0647 -1.09981 8.47924 -90.0238 9.9297 -2.20271 0.137271 -1.73938 -2.19452 0.234113 -24.2895 -2.14212 -0.531391 -4.27689 -2.14212 -0.531396 106.126 -43.9231 -75.482 19.2654 -13.2031 4.65846 -19.3392 -6.81629 -69.9139 -8.60716 0.0814584 -6.61119 -77.7067 -43.1546 97.0867 -19.3015 21.3095 -32.3153 7.91559 4.03879 -80.3193 -1.71323 -0.151182 -15.0419 27.0727 -0.465283 -0.470357 -26.048 -0.454587 0.914361 
-31.0395 105.677 25.4866 101.801 55.0345 85.3463 179.107 2.98794 90.7007 -40.0988 11.1935 8.38521 40.4837 -6.3611 -10.24 16.8239 0.140489 4.03946 160.494 58.8181 99.768 -114.833 -3.70839 -3.49341 72.4561 -8.1508 9.58255 35.9441 -0.745502 -10.6841 -1.275 8.47429 -90.0421 9.92846 -2.56022 0.124991 -1.73998 -2.55224 0.237613 -24.2945 -2.47935 -0.650728 -4.28187 -2.47935 -0.650734 106.1 -41.9889 -75.35 14.4748 -5.14219 12.5049 -16.6917 -5.85162 -69.5108 -9.12184 0.137292 -7.30678 -77.8476 -43.0188 96.8524 -13.4028 29.7504 -33.6561 5.5637 1.28216 -88.8394 -4.00233 0.0594768 -14.8861 25.6822 -0.480711 -2.66673 -26.7252 0.154137 1.77578 
-18.8376 109.539 14.9227 102.592 54.5797 87.4374 179.425 3.19868 90.2023 -32.8267 12.5253 8.59088 44.5872 -5.1289 -13.007 14.7077 -0.697206 8.04345 166.527 51.7925 98.3981 -98.2585 -14.81 -1.63388 67.8059 -3.96314 13.738 52.6398 -4.66892 -8.15125 -1.17674 8.66501 -90.3331 9.53924 -2.49614 -0.468544 -2.12938 -2.51437 -0.358151 -24.68 -2.2399 -1.19741 -4.6673 -2.2399 -1.19741 104.778 -40.1265 -77.516 7.18278 -3.34072 14.6157 -8.74094 -4.86502 -61.7527 -12.7217 0.130292 -6.56266 -78.3332 -43.0269 96.0475 -10.9644 36.9969 -32.1681 4.70621 -1.35646 -95.4884 -4.70328 0.145257 -15.6823 25.7081 -0.870103 -4.86434 -28.135 0.189823 3.4918 
-6.51963 106.923 4.64681 100.45 57.2243 89.5886 -177.442 6.86131 90.0353 -22.5548 11.4098 4.43141 40.8949 -7.85008 -13.8396 20.1426 0.0487367 2.86245 170.266 43.7214 95.7638 -76.8089 -16.2396 0.573001 66.3898 -2.28469 16.888 60.3476 -5.89219 -4.81407 -1.26099 8.58734 -90.4439 9.69265 -2.71446 -0.669304 -1.97556 -2.74129 -0.549112 -24.5279 -2.38777 -1.45456 -4.51527 -2.38776 -1.45455 104.652 -39.2481 -77.6861 -0.0637998 -0.300282 13.0871 -4.79077 -6.06743 -49.6897 -12.6831 0.0488088 -5.85186 -78.9773 -42.7858 94.9762 -11.0578 40.5791 -30.354 3.31068 -2.70135 -97.5313 -7.74502 0.471707 -16.4051 24.2643 -1.72863 -7.2993 -28.5727 -0.0830761 4.56639 
5.81898 97.7481 -5.37803 104.706 56.4102 86.9648 -177.84 4.2173 87.4522 -35.6639 10.342 5.80086 64.0441 3.70958 -4.83206 31.271 -0.13563 -0.988108 176.397 35.9142 94.3454 -47.5482 -15.5034 0.944144 58.5068 0.534448 15.8845 70.9596 -5.12078 5.01635 -1.09592 8.90253 -90.5184 9.05777 -2.41747 -0.857197 -2.61118 -2.45283 -0.749922 -25.1577 -2.04808 -1.54431 -5.14502 -2.04807 -1.54432 104.96 -39.198 -77.1264 -3.01453 6.44615 12.8897 -6.9427 -8.07966 -45.9256 -11.6727 -0.0826174 -4.50849 -78.4369 -42.1293 95.865 -13.1349 41.0246 -27.572 2.03814 -2.4967 -98.3624 -8.65415 0.587519 -16.6749 21.3464 -2.09391 -8.55211 -25.4525 -0.18174 4.99405 
18.5862 89.9967 -15.5789 104.919 56.1677 82.0259 -177.792 -5.49344 85.9124 -43.4544 16.9363 6.29037 80.0817 18.3506 9.55117 44.5266 -1.23331 4.79571 178.966 30.0917 89.2117 -11.9812 -15.8861 0.0866954 39.2989 6.65921 17.575 75.6678 -6.20321 3.80985 -1.12421 9.01076 -89.9792 8.85509 -2.23334 0.191535 -2.81397 -2.22273 0.289681 -25.3641 -2.1876 -0.488869 -5.35143 -2.1876 -0.48887 107.265 -41.6729 -73.3002 5.50208 14.7039 13.8096 -12.6883 -9.38413 -52.5147 -9.83236 -0.101275 -4.17451 -78.3586 -42.9749 96.0059 -16.7083 37.1987 -24.5404 1.92753 -0.357577 -89.9515 -8.01227 0.506243 -16.4406 21.6949 -2.6504 -10.5332 -23.7464 -0.109962 5.86221 
32.9142 89.2006 -30.1583 97.7196 58.2039 87.5933 -177.361 -12.3466 89.465 -42.9945 14.2379 8.72702 71.1815 8.70553 -2.23212 52.6027 -1.50007 5.75446 176.245 31.7368 89.2652 -12.4736 -10.194 2.54728 37.7323 7.20708 19.7967 66.5782 -5.63323 1.41389 -1.31541 8.31238 -90.4394 10.2503 -2.82166 -0.621905 -1.4176 -2.84628 -0.497023 -23.9727 -2.50423 -1.44165 -3.96002 -2.50423 -1.44165 108.134 -44.2625 -72.1474 16.9563 6.16341 13.3011 -12.4419 -9.47499 -55.0445 -9.27543 -0.0317407 -5.06596 -77.392 -44.6515 97.5962 -25.0667 35.1432 -15.9071 1.1095 2.51107 -77.2716 -1.26277 -0.209393 -14.9993 21.909 -0.634526 -5.69159 -26.3298 0.318284 4.73101 
